# xmcd CD database file
#
# Track frame offsets:
#	150
#	15300
#	28872
#	51387
#	65777
#	80637
#	96314
#	117607
#	133500
#	149976
#	166886
#	184399
#	200847
#	221553
#	244315
#	259047
#	284405
#
# Disc length: 4046 seconds
#
# Revision: 14
# Processed by: cddbd v1.5.2PL0 Copyright (c) Steve Scherf et al.
# Submitted via: CDex 1.70beta2
#
DISCID=1a0fcc11
DTITLE=Various Artist - 僕たちの洋楽ヒット Vol．12(1980～81)
DYEAR=2002
DGENRE=Rock
TTITLE0=Video Killed The Radio Star
TTITLE1=Body Language
TTITLE2=Where Is Someone To Love Me
TTITLE3=I’m In The Mood For Dancing
TTITLE4=In Your Letter
TTITLE5=Call Me
TTITLE6=Shining Star
TTITLE7=Steal Away
TTITLE8=Centerfold
TTITLE9=Bette Davis Eyes
TTITLE10=Arthur’s Theme (The Best That You Can Do)
TTITLE11=Modern Girl
TTITLE12=Her Town Too
TTITLE13=Who’s Crying Now
TTITLE14=Theme from ”Greatest American Hero”
TTITLE15=Let’s Groove
TTITLE16=Ai No Corrida
EXTD=YEAR: 2002
EXTT0=
EXTT1=
EXTT2=
EXTT3=
EXTT4=
EXTT5=
EXTT6=
EXTT7=
EXTT8=
EXTT9=
EXTT10=
EXTT11=
EXTT12=
EXTT13=
EXTT14=
EXTT15=
EXTT16=
PLAYORDER=
